<svg xmlns="http://www.w3.org/2000/svg" viewBox="0 0 800 600" width="800" height="600" role="img" aria-label="Postazione di microsaldatura">
  <defs>
    <linearGradient id="sfondo" x1="0" y1="0" x2="1" y2="1">
      <stop offset="0%" stop-color="#0a1526"/><stop offset="100%" stop-color="#04070f"/>
    </linearGradient>
    <linearGradient id="blu" x1="0" y1="0" x2="1" y2="1">
      <stop offset="0%" stop-color="#1792d1"/><stop offset="100%" stop-color="#0a68a3"/>
    </linearGradient>
    <pattern id="griglia" width="40" height="40" patternUnits="userSpaceOnUse">
      <path d="M40 0H0V40" fill="none" stroke="#1792d1" stroke-opacity="0.12"/>
    </pattern>
  </defs>
  <rect width="800" height="600" fill="url(#sfondo)"/>
  <rect width="800" height="600" fill="url(#griglia)"/>
  <circle cx="640" cy="90" r="150" fill="#1792d1" fill-opacity="0.14"/>
  <rect x="80" y="380" width="640" height="26" rx="8" fill="#122238" stroke="#1792d1" stroke-opacity="0.35"/>
  <g stroke="#6cc4ec" stroke-opacity="0.7" stroke-width="6" fill="none" stroke-linecap="round">
    <path d="M250 380V210"/><path d="M250 210h120"/><path d="M370 210v40"/>
  </g>
  <circle cx="370" cy="286" r="34" fill="none" stroke="#1792d1" stroke-width="8"/>
  <circle cx="370" cy="286" r="14" fill="#1792d1" fill-opacity="0.5"/>
  <rect x="200" y="330" width="120" height="50" rx="10" fill="#0a1526" stroke="#1792d1" stroke-opacity="0.5"/>
  <rect x="330" y="352" width="180" height="28" rx="8" fill="#0a1526" stroke="#1792d1" stroke-opacity="0.6"/>
  <g fill="#6cc4ec" fill-opacity="0.8"><rect x="350" y="360" width="26" height="12" rx="3"/><rect x="390" y="360" width="40" height="12" rx="3"/><rect x="444" y="360" width="20" height="12" rx="3"/></g>
  <path d="M560 380V250l60-40" stroke="#1792d1" stroke-width="8" fill="none" stroke-linecap="round"/>
  <circle cx="628" cy="205" r="14" fill="#ff8a4c" fill-opacity="0.85"/>
  <g><rect x="80" y="40" width="176" height="34" rx="17" fill="#1792d1" fill-opacity="0.18" stroke="#1792d1" stroke-opacity="0.55"/><text x="168.0" y="63" text-anchor="middle" font-family="system-ui,sans-serif" font-size="16" font-weight="700" fill="#6cc4ec">MICROSALDATURA</text></g>
</svg>
